<?xml version="1.0" standalone="no"?>
<!DOCTYPE svg PUBLIC "-//W3C//DTD SVG 20010904//EN"
 "http://www.w3.org/TR/2001/REC-SVG-20010904/DTD/svg10.dtd">
<svg version="1.0" xmlns="http://www.w3.org/2000/svg"
 width="16.000000pt" height="16.000000pt" viewBox="0 0 16.000000 16.000000"
 preserveAspectRatio="xMidYMid meet">
<metadata>
Created by potrace 1.11, written by Peter Selinger 2001-2013
</metadata>
<g transform="translate(0.000000,16.000000) scale(0.002286,-0.002286)"
fill="#000000" stroke="none">
<path d="M3407 6554 c-1 -1 -65 -4 -142 -8 -77 -3 -149 -8 -160 -10 -11 -2
-52 -7 -90 -10 -39 -4 -80 -8 -90 -10 -11 -2 -40 -7 -65 -10 -338 -46 -733
-199 -1040 -401 -361 -238 -646 -590 -801 -990 -11 -27 -26 -63 -33 -80 -62
-139 -169 -528 -192 -700 -3 -27 -8 -59 -10 -69 -5 -28 -23 -164 -28 -216 -28
-271 -28 -895 -1 -1090 2 -14 6 -54 10 -90 7 -68 17 -135 40 -265 89 -490 291
-974 533 -1274 108 -134 287 -303 420 -396 252 -177 593 -330 892 -400 131
-31 303 -58 435 -69 33 -3 92 -8 131 -11 97 -9 446 -9 564 -1 138 10 293 26
365 40 11 2 40 7 65 11 374 58 825 260 1135 510 335 269 556 605 723 1100 34
100 72 227 78 262 3 13 13 60 24 106 10 45 21 100 25 122 3 22 7 47 10 55 2 8
6 35 9 60 3 25 8 56 11 69 7 36 15 115 31 296 17 187 9 792 -12 970 -30 246
-60 422 -101 575 -14 52 -28 109 -33 125 -18 72 -97 290 -142 395 -180 416
-430 718 -795 960 -333 221 -785 382 -1168 415 -33 3 -71 7 -84 10 -43 8 -506
25 -514 19z m333 -758 c309 -21 431 -45 633 -125 224 -89 380 -190 531 -345
136 -138 235 -300 327 -536 55 -143 140 -464 153 -584 3 -27 10 -77 16 -110
59 -375 42 -1041 -36 -1411 -8 -38 -16 -79 -18 -90 -16 -84 -83 -302 -126
-410 -30 -76 -107 -237 -133 -280 -77 -126 -195 -258 -312 -349 -67 -52 -217
-149 -235 -151 -3 -1 -23 -10 -45 -22 -143 -75 -360 -141 -520 -158 -33 -4
-71 -8 -84 -10 -132 -22 -679 -22 -789 0 -11 2 -45 6 -75 10 -203 21 -460 114
-659 236 -329 202 -514 466 -658 939 -35 113 -72 266 -84 345 -3 17 -10 62
-16 100 -7 39 -14 90 -16 115 -3 25 -7 61 -9 80 -25 186 -24 662 1 935 17 193
75 475 134 660 161 502 375 774 769 970 242 122 450 174 756 190 66 4 121 7
122 8 4 5 278 -1 373 -7z"/>
<path d="M3680 4791 c0 -6 9 -48 20 -95 11 -46 22 -99 25 -118 6 -37 16 -94
21 -120 21 -118 23 -289 4 -368 -39 -170 -173 -296 -336 -318 -235 -31 -449
134 -483 373 -5 36 -8 77 -5 90 7 37 -6 30 -52 -28 -141 -180 -270 -458 -313
-677 -6 -30 -14 -66 -16 -80 -27 -128 -24 -419 4 -493 6 -15 9 -27 6 -27 -6 0
44 -139 67 -184 181 -358 540 -566 938 -543 352 21 662 227 816 544 69 142 96
259 97 428 1 151 -6 245 -29 365 -3 14 -9 45 -13 70 -34 180 -136 432 -253
628 -93 154 -180 265 -323 407 -123 123 -175 167 -175 146z m326 -1291 c37
-204 44 -384 19 -482 -68 -263 -293 -442 -555 -440 -294 1 -478 295 -345 552
54 105 135 152 370 215 176 48 328 129 427 230 l53 54 13 -47 c6 -26 15 -63
18 -82z"/>
</g>
</svg>
