<?xml version="1.0" standalone="no"?>
<!DOCTYPE svg PUBLIC "-//W3C//DTD SVG 20010904//EN"
 "http://www.w3.org/TR/2001/REC-SVG-20010904/DTD/svg10.dtd">
<svg version="1.0" xmlns="http://www.w3.org/2000/svg"
 width="700.000000pt" height="700.000000pt" viewBox="0 0 700.000000 700.000000"
 preserveAspectRatio="xMidYMid meet">
<metadata>
Created by potrace 1.11, written by Peter Selinger 2001-2013
</metadata>
<g transform="translate(0.000000,700.000000) scale(0.100000,-0.100000)"
fill="#000000" stroke="none">
<path d="M3327 6584 c-1 -1 -54 -5 -118 -8 -64 -4 -125 -8 -135 -10 -11 -2
-51 -7 -89 -11 -343 -36 -614 -118 -945 -286 -359 -181 -653 -442 -855 -758
-143 -225 -297 -607 -370 -921 -6 -22 -46 -221 -50 -245 -17 -101 -43 -321
-52 -455 -15 -210 -7 -831 12 -930 2 -12 7 -49 10 -83 3 -34 11 -91 16 -127 6
-36 12 -76 14 -90 2 -14 9 -50 15 -80 6 -30 13 -68 16 -85 20 -117 113 -422
184 -600 144 -364 372 -679 655 -906 214 -172 530 -339 821 -434 101 -33 293
-79 369 -89 22 -3 49 -7 60 -10 12 -2 50 -7 85 -11 36 -3 79 -8 95 -10 187
-24 683 -24 880 0 17 2 55 6 85 10 30 3 66 8 80 10 14 3 36 6 50 9 31 5 138
25 165 30 77 16 220 56 270 75 11 5 58 23 105 41 79 31 309 141 390 187 260
149 528 398 697 649 119 176 239 438 327 711 41 129 106 399 120 498 4 22 8
51 11 65 6 34 12 83 20 155 3 33 8 74 10 90 27 213 27 807 -1 1085 -5 51 -23
187 -28 216 -2 10 -7 39 -10 64 -8 56 -15 100 -21 120 -2 8 -7 30 -10 48 -3
17 -21 92 -40 165 -99 383 -266 752 -446 987 -150 196 -390 409 -598 533 -199
118 -520 258 -673 293 -10 2 -26 6 -35 8 -82 20 -154 36 -183 41 -19 3 -60 10
-90 15 -30 5 -84 12 -120 16 -36 3 -74 8 -84 10 -55 10 -599 27 -609 18z m508
-768 c276 -23 460 -72 686 -185 358 -179 571 -420 723 -821 42 -110 101 -297
110 -350 2 -14 11 -52 19 -85 9 -33 18 -77 21 -97 3 -21 8 -53 11 -70 9 -53
20 -142 30 -238 25 -235 25 -718 0 -945 -13 -113 -17 -144 -30 -230 -3 -16 -7
-48 -10 -70 -4 -22 -11 -58 -17 -80 -5 -22 -12 -47 -13 -55 -39 -186 -114
-407 -198 -580 -41 -85 -129 -224 -184 -289 -43 -52 -154 -158 -204 -193 -24
-18 -46 -35 -49 -38 -11 -14 -162 -100 -226 -130 -164 -76 -249 -106 -379
-134 -104 -23 -131 -26 -350 -45 -92 -8 -548 -6 -620 3 -22 3 -65 8 -95 11
-178 20 -358 71 -525 149 -103 48 -241 127 -272 154 -10 10 -36 30 -58 47 -73
54 -255 246 -255 270 0 3 -11 21 -25 39 -124 162 -291 647 -330 954 -2 12 -8
53 -14 90 -46 282 -46 910 -1 1197 5 33 14 92 20 130 11 77 11 79 35 180 9 39
19 79 21 90 8 42 69 225 111 335 94 242 192 394 357 553 196 190 538 359 812
403 20 3 45 7 55 9 24 5 134 16 234 24 91 8 504 5 610 -3z"/>
<path d="M3365 5010 c-364 -54 -663 -308 -779 -663 -32 -97 -40 -158 -40 -292
1 -260 135 -626 446 -1215 39 -73 89 -163 203 -365 23 -39 201 -330 265 -432
18 -29 36 -53 40 -53 7 0 38 48 184 285 81 132 153 256 209 355 16 30 39 71
50 90 54 94 277 533 277 544 0 2 15 37 34 78 58 125 135 343 168 471 26 103
31 141 31 247 1 135 -2 157 -33 267 -27 96 -97 239 -154 311 -182 233 -451
370 -735 377 -64 1 -138 -1 -166 -5z m307 -419 c72 -24 161 -78 219 -132 52
-49 114 -150 140 -226 33 -100 34 -268 1 -348 -61 -150 -155 -259 -275 -319
-95 -49 -172 -66 -278 -62 -293 11 -524 240 -535 531 -2 50 1 110 7 135 45
209 208 378 419 434 80 21 218 15 302 -13z"/>
</g>
</svg>
